<?xml version="1.0" standalone="no"?>
<!DOCTYPE svg PUBLIC "-//W3C//DTD SVG 20010904//EN"
 "http://www.w3.org/TR/2001/REC-SVG-20010904/DTD/svg10.dtd">
<svg version="1.0" xmlns="http://www.w3.org/2000/svg"
 width="96.000000pt" height="96.000000pt" viewBox="0 0 96.000000 96.000000"
 preserveAspectRatio="xMidYMid meet">

<g transform="translate(0.000000,96.000000) scale(0.100000,-0.100000)"
fill="#000000" stroke="none">
<path d="M486 896 c-53 -37 -82 -75 -92 -118 -3 -16 -9 -28 -13 -28 -13 0 -31
24 -31 42 0 54 -79 -3 -116 -84 l-16 -37 -39 26 c-38 25 -129 44 -129 27 0 -5
11 -30 24 -55 20 -41 22 -52 13 -96 -7 -34 -7 -65 0 -94 9 -42 8 -45 -26 -82
-40 -43 -34 -57 27 -57 l32 0 0 -155 0 -155 390 0 390 0 0 155 c0 136 2 155
18 164 15 9 14 13 -14 42 l-32 32 29 61 c34 72 36 114 9 171 -24 49 -74 100
-89 91 -6 -4 -11 -20 -11 -36 0 -32 -9 -60 -19 -60 -4 0 -13 16 -20 36 -14 39
-133 164 -156 164 -10 0 -12 -12 -8 -55 3 -30 3 -55 0 -55 -3 0 -22 15 -41 33
-34 30 -35 34 -26 72 12 50 13 85 2 85 -5 0 -30 -15 -56 -34z m154 -514 c-7
-3 -67 51 -135 118 -105 103 -126 120 -142 111 -10 -5 -67 -59 -128 -120 -60
-61 -116 -111 -125 -111 -8 0 48 61 125 134 l140 133 138 -131 c76 -72 133
-132 127 -134z m-102 33 l62 -59 0 -148 0 -148 -135 0 -134 0 -3 128 -3 127
-70 0 -70 0 -3 -127 c-2 -105 -5 -128 -17 -128 -13 0 -15 25 -15 148 l-1 147
113 107 113 107 50 -47 c28 -26 78 -74 113 -107z m332 -215 l0 -140 -120 0
-120 0 0 140 0 140 120 0 120 0 0 -140z m-570 -30 l0 -110 -45 0 -45 0 0 110
0 110 45 0 45 0 0 -110z"/>
<path d="M310 465 c-50 -51 -62 -67 -52 -77 10 -10 23 -1 65 40 l52 52 53 -52
c41 -42 54 -50 64 -40 10 10 -1 26 -52 77 l-65 65 -65 -65z"/>
<path d="M394 307 c-3 -8 -4 -36 -2 -63 l3 -49 85 0 85 0 0 60 0 60 -83 3
c-64 2 -84 0 -88 -11z m146 -52 c0 -24 -3 -25 -60 -25 -57 0 -60 1 -60 25 0
24 3 25 60 25 57 0 60 -1 60 -25z"/>
<path d="M660 255 l0 -66 83 3 82 3 0 60 0 60 -82 3 -83 3 0 -66z"/>
</g>
</svg>
